<?xml version="1.0" encoding="UTF-8" standalone="no"?>
<svg width="16px" height="16px" viewBox="0 0 16 16" version="1.1" xmlns="http://www.w3.org/2000/svg" xmlns:xlink="http://www.w3.org/1999/xlink">
    <!-- Generator: Sketch 48.2 (47327) - http://www.bohemiancoding.com/sketch -->
    <title>icon_remove</title>
    <desc>Created with Sketch.</desc>
    <defs></defs>
    <g id="01.CMC_문자보내기(컬러교체)" stroke="none" stroke-width="1" fill="none" fill-rule="evenodd" transform="translate(-1010.000000, -360.000000)">
        <g id="Group-5" transform="translate(641.000000, 299.000000)">
            <g id="icon_remove" transform="translate(369.000000, 61.000000)">
                <g id="remove">
                    <path d="M8,0 C3.58862306,0 0,3.58862306 0,8 C0,12.4113769 3.58862306,16 8,16 C12.4113769,16 16,12.4113769 16,8 C16,3.58862306 12.4113769,0 8,0 Z" id="Shape" fill="#9FA1A7" fill-rule="nonzero"></path>
                    <path d="M10.8133397,9.913057 C11.0622201,10.162054 11.0622201,10.5643427 10.8133397,10.8133397 C10.6891909,10.9374885 10.5262238,10.9998543 10.3631401,10.9998543 C10.2001729,10.9998543 10.0372058,10.9374885 9.913057,10.8133397 L8,8.9001661 L6.086943,10.8133397 C5.96279422,10.9374885 5.7998271,10.9998543 5.63685995,10.9998543 C5.47377623,10.9998543 5.31080911,10.9374885 5.1866603,10.8133397 C4.9377799,10.5643427 4.9377799,10.162054 5.1866603,9.913057 L7.0998339,8 L5.1866603,6.086943 C4.9377799,5.837946 4.9377799,5.4356573 5.1866603,5.1866603 C5.4356573,4.9377799 5.837946,4.9377799 6.086943,5.1866603 L8,7.0998339 L9.913057,5.1866603 C10.162054,4.9377799 10.5643427,4.9377799 10.8133397,5.1866603 C11.0622201,5.4356573 11.0622201,5.837946 10.8133397,6.086943 L8.9001661,8 L10.8133397,9.913057 Z" id="Shape" fill="#FFFFFF" fill-rule="nonzero"></path>
                </g>
            </g>
        </g>
    </g>
</svg>